<svg xmlns="http://www.w3.org/2000/svg" width="120" height="120" viewBox="0 0 24 24" fill="none" stroke="currentColor" stroke-width="1.2" stroke-linecap="round" stroke-linejoin="round">
  <!-- Shield -->
  <path d="M20 13c0 5-3.5 7.5-7.66 8.95a1 1 0 0 1-.67-.01C7.5 20.5 4 18 4 13V6a1 1 0 0 1 1-1c2 0 4.5-1.2 6.24-2.72a1.17 1.17 0 0 1 1.52 0C14.51 3.81 17 5 19 5a1 1 0 0 1 1 1z" stroke="#9234ea" fill="#9234ea"/>

  <!-- Interlocking Rings (scaled down & centered) -->
  <g fill="none" stroke="#ffffff" stroke-width="1" transform="translate(4.5,5) scale(0.45)">
    <circle cx="13" cy="14" r="8"/>
    <circle cx="21" cy="14" r="8"/>
    <circle cx="17" cy="21" r="8"/>
  </g><!-- Key stems inside each ring -->
  <g stroke="#ffffff" stroke-width="1" stroke-linecap="round" transform="translate(4.5,5) scale(0.45)">
    <line x1="13" y1="2" x2="13" y2="6"/>
    <line x1="21" y1="2" x2="21" y2="6"/>
    
  </g>
</svg>